<mxfile host="app.diagrams.net" agent="Mozilla/5.0 (Windows NT 10.0; Win64; x64) AppleWebKit/537.36 (KHTML, like Gecko) Chrome/131.0.0.0 Safari/537.36" version="26.0.3" pages="2">
  <diagram name="Page-1" id="2ZXp6f_zV0ALPMjxGurc">
    <mxGraphModel dx="468" dy="283" grid="1" gridSize="10" guides="1" tooltips="1" connect="1" arrows="1" fold="1" page="1" pageScale="1" pageWidth="1169" pageHeight="827" math="0" shadow="0">
      <root>
        <mxCell id="0" />
        <mxCell id="1" parent="0" />
        <mxCell id="vi78r01F3k-2fIKYilnz-6" value="Sistem Penjualan Makanan dan Minuman" style="swimlane;childLayout=stackLayout;resizeParent=1;resizeParentMax=0;startSize=20;html=1;" parent="1" vertex="1">
          <mxGeometry x="300" y="30" width="360" height="770" as="geometry" />
        </mxCell>
        <mxCell id="vi78r01F3k-2fIKYilnz-7" value="Pelanggan" style="swimlane;startSize=20;html=1;" parent="vi78r01F3k-2fIKYilnz-6" vertex="1">
          <mxGeometry y="20" width="120" height="750" as="geometry" />
        </mxCell>
        <mxCell id="vi78r01F3k-2fIKYilnz-17" style="edgeStyle=orthogonalEdgeStyle;rounded=0;orthogonalLoop=1;jettySize=auto;html=1;exitX=0.5;exitY=1;exitDx=0;exitDy=0;entryX=0.5;entryY=0;entryDx=0;entryDy=0;" parent="vi78r01F3k-2fIKYilnz-7" source="vi78r01F3k-2fIKYilnz-13" target="vi78r01F3k-2fIKYilnz-14" edge="1">
          <mxGeometry relative="1" as="geometry" />
        </mxCell>
        <mxCell id="vi78r01F3k-2fIKYilnz-13" value="Pilih kategori" style="rounded=0;whiteSpace=wrap;html=1;" parent="vi78r01F3k-2fIKYilnz-7" vertex="1">
          <mxGeometry x="10" y="120" width="100" height="50" as="geometry" />
        </mxCell>
        <mxCell id="vi78r01F3k-2fIKYilnz-18" style="edgeStyle=orthogonalEdgeStyle;rounded=0;orthogonalLoop=1;jettySize=auto;html=1;exitX=0.5;exitY=1;exitDx=0;exitDy=0;entryX=0.5;entryY=0;entryDx=0;entryDy=0;" parent="vi78r01F3k-2fIKYilnz-7" source="vi78r01F3k-2fIKYilnz-14" target="vi78r01F3k-2fIKYilnz-16" edge="1">
          <mxGeometry relative="1" as="geometry" />
        </mxCell>
        <mxCell id="vi78r01F3k-2fIKYilnz-14" value="Pilih makanan dan minuman" style="rounded=0;whiteSpace=wrap;html=1;" parent="vi78r01F3k-2fIKYilnz-7" vertex="1">
          <mxGeometry x="10" y="200" width="100" height="50" as="geometry" />
        </mxCell>
        <mxCell id="vi78r01F3k-2fIKYilnz-16" value="Checkout dan masukkan alamat" style="rounded=0;whiteSpace=wrap;html=1;" parent="vi78r01F3k-2fIKYilnz-7" vertex="1">
          <mxGeometry x="10" y="280" width="100" height="50" as="geometry" />
        </mxCell>
        <mxCell id="xYYFLZZpmhTs-lvnNhGI-10" style="edgeStyle=orthogonalEdgeStyle;rounded=0;orthogonalLoop=1;jettySize=auto;html=1;exitX=0.5;exitY=1;exitDx=0;exitDy=0;entryX=0.5;entryY=0;entryDx=0;entryDy=0;" edge="1" parent="vi78r01F3k-2fIKYilnz-7" source="vi78r01F3k-2fIKYilnz-27" target="xYYFLZZpmhTs-lvnNhGI-8">
          <mxGeometry relative="1" as="geometry" />
        </mxCell>
        <mxCell id="vi78r01F3k-2fIKYilnz-27" value="Pilih metode pembayaran" style="rounded=0;whiteSpace=wrap;html=1;" parent="vi78r01F3k-2fIKYilnz-7" vertex="1">
          <mxGeometry x="10" y="360" width="100" height="50" as="geometry" />
        </mxCell>
        <mxCell id="xYYFLZZpmhTs-lvnNhGI-14" style="edgeStyle=orthogonalEdgeStyle;rounded=0;orthogonalLoop=1;jettySize=auto;html=1;exitX=0.5;exitY=1;exitDx=0;exitDy=0;entryX=0.5;entryY=0;entryDx=0;entryDy=0;" edge="1" parent="vi78r01F3k-2fIKYilnz-7" source="vi78r01F3k-2fIKYilnz-28" target="vi78r01F3k-2fIKYilnz-38">
          <mxGeometry relative="1" as="geometry" />
        </mxCell>
        <mxCell id="vi78r01F3k-2fIKYilnz-28" value="Siapkan tunai" style="rounded=0;whiteSpace=wrap;html=1;" parent="vi78r01F3k-2fIKYilnz-7" vertex="1">
          <mxGeometry x="10" y="520" width="100" height="50" as="geometry" />
        </mxCell>
        <mxCell id="vi78r01F3k-2fIKYilnz-38" value="Pesanan diterima dan bayar(jika tunai)" style="rounded=0;whiteSpace=wrap;html=1;" parent="vi78r01F3k-2fIKYilnz-7" vertex="1">
          <mxGeometry x="10" y="600" width="100" height="50" as="geometry" />
        </mxCell>
        <mxCell id="xYYFLZZpmhTs-lvnNhGI-5" style="edgeStyle=orthogonalEdgeStyle;rounded=0;orthogonalLoop=1;jettySize=auto;html=1;exitX=0.5;exitY=0.5;exitDx=0;exitDy=15;entryX=0.5;entryY=0;entryDx=0;entryDy=0;exitPerimeter=0;" edge="1" parent="vi78r01F3k-2fIKYilnz-7" source="xYYFLZZpmhTs-lvnNhGI-18" target="vi78r01F3k-2fIKYilnz-13">
          <mxGeometry relative="1" as="geometry">
            <mxPoint x="60" y="90" as="sourcePoint" />
          </mxGeometry>
        </mxCell>
        <mxCell id="xYYFLZZpmhTs-lvnNhGI-13" value="No" style="edgeStyle=orthogonalEdgeStyle;rounded=0;orthogonalLoop=1;jettySize=auto;html=1;exitX=0.5;exitY=1;exitDx=0;exitDy=0;entryX=0.5;entryY=0;entryDx=0;entryDy=0;" edge="1" parent="vi78r01F3k-2fIKYilnz-7" source="xYYFLZZpmhTs-lvnNhGI-8" target="vi78r01F3k-2fIKYilnz-28">
          <mxGeometry x="0.1111" y="10" relative="1" as="geometry">
            <mxPoint as="offset" />
          </mxGeometry>
        </mxCell>
        <mxCell id="xYYFLZZpmhTs-lvnNhGI-8" value="Transfer" style="rhombus;whiteSpace=wrap;html=1;" vertex="1" parent="vi78r01F3k-2fIKYilnz-7">
          <mxGeometry x="27.5" y="432.5" width="65" height="65" as="geometry" />
        </mxCell>
        <mxCell id="xYYFLZZpmhTs-lvnNhGI-18" value="Login" style="html=1;dashed=0;whiteSpace=wrap;shape=mxgraph.dfd.start" vertex="1" parent="vi78r01F3k-2fIKYilnz-7">
          <mxGeometry x="20" y="50" width="80" height="30" as="geometry" />
        </mxCell>
        <mxCell id="xYYFLZZpmhTs-lvnNhGI-23" value="Pesanan selesai" style="html=1;dashed=0;whiteSpace=wrap;shape=mxgraph.dfd.start" vertex="1" parent="vi78r01F3k-2fIKYilnz-7">
          <mxGeometry x="20" y="680" width="80" height="30" as="geometry" />
        </mxCell>
        <mxCell id="xYYFLZZpmhTs-lvnNhGI-25" style="edgeStyle=orthogonalEdgeStyle;rounded=0;orthogonalLoop=1;jettySize=auto;html=1;exitX=0.5;exitY=1;exitDx=0;exitDy=0;entryX=0.5;entryY=0.5;entryDx=0;entryDy=-15;entryPerimeter=0;" edge="1" parent="vi78r01F3k-2fIKYilnz-7" source="vi78r01F3k-2fIKYilnz-38" target="xYYFLZZpmhTs-lvnNhGI-23">
          <mxGeometry relative="1" as="geometry" />
        </mxCell>
        <mxCell id="vi78r01F3k-2fIKYilnz-8" value="Sistem" style="swimlane;startSize=20;html=1;" parent="vi78r01F3k-2fIKYilnz-6" vertex="1">
          <mxGeometry x="120" y="20" width="120" height="750" as="geometry" />
        </mxCell>
        <mxCell id="vi78r01F3k-2fIKYilnz-31" value="No" style="edgeStyle=orthogonalEdgeStyle;rounded=0;orthogonalLoop=1;jettySize=auto;html=1;exitX=0.5;exitY=1;exitDx=0;exitDy=0;entryX=0.5;entryY=0;entryDx=0;entryDy=0;" parent="vi78r01F3k-2fIKYilnz-8" source="vi78r01F3k-2fIKYilnz-22" target="vi78r01F3k-2fIKYilnz-26" edge="1">
          <mxGeometry x="0.1111" y="10" relative="1" as="geometry">
            <mxPoint as="offset" />
          </mxGeometry>
        </mxCell>
        <mxCell id="vi78r01F3k-2fIKYilnz-22" value="Menu habis?" style="rhombus;whiteSpace=wrap;html=1;" parent="vi78r01F3k-2fIKYilnz-8" vertex="1">
          <mxGeometry x="27.5" y="272.5" width="65" height="65" as="geometry" />
        </mxCell>
        <mxCell id="vi78r01F3k-2fIKYilnz-26" value="Buat daftar tagihan" style="rounded=0;whiteSpace=wrap;html=1;" parent="vi78r01F3k-2fIKYilnz-8" vertex="1">
          <mxGeometry x="10" y="360" width="100" height="50" as="geometry" />
        </mxCell>
        <mxCell id="vi78r01F3k-2fIKYilnz-41" value="Yes" style="edgeStyle=orthogonalEdgeStyle;rounded=0;orthogonalLoop=1;jettySize=auto;html=1;exitX=0.5;exitY=1;exitDx=0;exitDy=0;entryX=0.5;entryY=0;entryDx=0;entryDy=0;" parent="vi78r01F3k-2fIKYilnz-8" source="vi78r01F3k-2fIKYilnz-30" target="vi78r01F3k-2fIKYilnz-35" edge="1">
          <mxGeometry x="0.1111" y="10" relative="1" as="geometry">
            <mxPoint as="offset" />
          </mxGeometry>
        </mxCell>
        <mxCell id="vi78r01F3k-2fIKYilnz-30" value="Pembayaran berhasil?" style="rhombus;whiteSpace=wrap;html=1;" parent="vi78r01F3k-2fIKYilnz-8" vertex="1">
          <mxGeometry x="27.5" y="432.5" width="65" height="65" as="geometry" />
        </mxCell>
        <mxCell id="vi78r01F3k-2fIKYilnz-35" value="Buat pesanan" style="rounded=0;whiteSpace=wrap;html=1;" parent="vi78r01F3k-2fIKYilnz-8" vertex="1">
          <mxGeometry x="10" y="520" width="100" height="50" as="geometry" />
        </mxCell>
        <mxCell id="xYYFLZZpmhTs-lvnNhGI-26" value="set pesanan selesai" style="html=1;dashed=0;whiteSpace=wrap;shape=mxgraph.dfd.start" vertex="1" parent="vi78r01F3k-2fIKYilnz-8">
          <mxGeometry x="20" y="680" width="80" height="30" as="geometry" />
        </mxCell>
        <mxCell id="xYYFLZZpmhTs-lvnNhGI-30" style="edgeStyle=orthogonalEdgeStyle;rounded=0;orthogonalLoop=1;jettySize=auto;html=1;exitX=0.5;exitY=0.5;exitDx=0;exitDy=15;exitPerimeter=0;entryX=0.5;entryY=0;entryDx=0;entryDy=0;" edge="1" parent="vi78r01F3k-2fIKYilnz-8" source="xYYFLZZpmhTs-lvnNhGI-28" target="xYYFLZZpmhTs-lvnNhGI-29">
          <mxGeometry relative="1" as="geometry" />
        </mxCell>
        <mxCell id="xYYFLZZpmhTs-lvnNhGI-28" value="Mengambil data" style="html=1;dashed=0;whiteSpace=wrap;shape=mxgraph.dfd.start" vertex="1" parent="vi78r01F3k-2fIKYilnz-8">
          <mxGeometry x="20" y="50" width="80" height="30" as="geometry" />
        </mxCell>
        <mxCell id="xYYFLZZpmhTs-lvnNhGI-29" value="Menampilkan makanan dan minuman" style="rounded=0;whiteSpace=wrap;html=1;" vertex="1" parent="vi78r01F3k-2fIKYilnz-8">
          <mxGeometry x="10" y="120" width="100" height="50" as="geometry" />
        </mxCell>
        <mxCell id="vi78r01F3k-2fIKYilnz-9" value="Admin" style="swimlane;startSize=20;html=1;" parent="vi78r01F3k-2fIKYilnz-6" vertex="1">
          <mxGeometry x="240" y="20" width="120" height="750" as="geometry" />
        </mxCell>
        <mxCell id="vi78r01F3k-2fIKYilnz-44" style="edgeStyle=orthogonalEdgeStyle;rounded=0;orthogonalLoop=1;jettySize=auto;html=1;exitX=0.5;exitY=1;exitDx=0;exitDy=0;entryX=0.5;entryY=0;entryDx=0;entryDy=0;" parent="vi78r01F3k-2fIKYilnz-9" source="vi78r01F3k-2fIKYilnz-36" target="vi78r01F3k-2fIKYilnz-40" edge="1">
          <mxGeometry relative="1" as="geometry" />
        </mxCell>
        <mxCell id="vi78r01F3k-2fIKYilnz-36" value="Melihat daftar pesanan" style="rounded=0;whiteSpace=wrap;html=1;" parent="vi78r01F3k-2fIKYilnz-9" vertex="1">
          <mxGeometry x="10" y="520" width="100" height="50" as="geometry" />
        </mxCell>
        <mxCell id="vi78r01F3k-2fIKYilnz-40" value="Proses pesanan&lt;div&gt;(set diproses/dikirim)&lt;/div&gt;" style="rounded=0;whiteSpace=wrap;html=1;" parent="vi78r01F3k-2fIKYilnz-9" vertex="1">
          <mxGeometry x="10" y="600" width="100" height="50" as="geometry" />
        </mxCell>
        <mxCell id="xYYFLZZpmhTs-lvnNhGI-33" style="edgeStyle=orthogonalEdgeStyle;rounded=0;orthogonalLoop=1;jettySize=auto;html=1;exitX=0.5;exitY=0.5;exitDx=0;exitDy=15;exitPerimeter=0;entryX=0.5;entryY=0;entryDx=0;entryDy=0;" edge="1" parent="vi78r01F3k-2fIKYilnz-9" source="xYYFLZZpmhTs-lvnNhGI-32" target="vi78r01F3k-2fIKYilnz-36">
          <mxGeometry relative="1" as="geometry" />
        </mxCell>
        <mxCell id="xYYFLZZpmhTs-lvnNhGI-32" value="Login" style="html=1;dashed=0;whiteSpace=wrap;shape=mxgraph.dfd.start" vertex="1" parent="vi78r01F3k-2fIKYilnz-9">
          <mxGeometry x="20" y="50" width="80" height="30" as="geometry" />
        </mxCell>
        <mxCell id="vi78r01F3k-2fIKYilnz-24" style="edgeStyle=orthogonalEdgeStyle;rounded=0;orthogonalLoop=1;jettySize=auto;html=1;exitX=1;exitY=0.5;exitDx=0;exitDy=0;entryX=0;entryY=0.5;entryDx=0;entryDy=0;" parent="vi78r01F3k-2fIKYilnz-6" source="vi78r01F3k-2fIKYilnz-16" target="vi78r01F3k-2fIKYilnz-22" edge="1">
          <mxGeometry relative="1" as="geometry" />
        </mxCell>
        <mxCell id="vi78r01F3k-2fIKYilnz-25" value="yes" style="edgeStyle=orthogonalEdgeStyle;rounded=0;orthogonalLoop=1;jettySize=auto;html=1;exitX=0.5;exitY=0;exitDx=0;exitDy=0;entryX=1;entryY=0.5;entryDx=0;entryDy=0;" parent="vi78r01F3k-2fIKYilnz-6" source="vi78r01F3k-2fIKYilnz-22" target="vi78r01F3k-2fIKYilnz-14" edge="1">
          <mxGeometry relative="1" as="geometry" />
        </mxCell>
        <mxCell id="vi78r01F3k-2fIKYilnz-32" style="edgeStyle=orthogonalEdgeStyle;rounded=0;orthogonalLoop=1;jettySize=auto;html=1;exitX=0;exitY=0.5;exitDx=0;exitDy=0;entryX=1;entryY=0.5;entryDx=0;entryDy=0;" parent="vi78r01F3k-2fIKYilnz-6" source="vi78r01F3k-2fIKYilnz-26" target="vi78r01F3k-2fIKYilnz-27" edge="1">
          <mxGeometry relative="1" as="geometry" />
        </mxCell>
        <mxCell id="vi78r01F3k-2fIKYilnz-42" style="edgeStyle=orthogonalEdgeStyle;rounded=0;orthogonalLoop=1;jettySize=auto;html=1;exitX=1;exitY=0.5;exitDx=0;exitDy=0;entryX=0;entryY=0.5;entryDx=0;entryDy=0;" parent="vi78r01F3k-2fIKYilnz-6" source="vi78r01F3k-2fIKYilnz-35" target="vi78r01F3k-2fIKYilnz-36" edge="1">
          <mxGeometry relative="1" as="geometry" />
        </mxCell>
        <mxCell id="vi78r01F3k-2fIKYilnz-45" style="edgeStyle=orthogonalEdgeStyle;rounded=0;orthogonalLoop=1;jettySize=auto;html=1;exitX=0;exitY=0.5;exitDx=0;exitDy=0;entryX=1;entryY=0.5;entryDx=0;entryDy=0;" parent="vi78r01F3k-2fIKYilnz-6" source="vi78r01F3k-2fIKYilnz-40" target="vi78r01F3k-2fIKYilnz-38" edge="1">
          <mxGeometry relative="1" as="geometry" />
        </mxCell>
        <mxCell id="xYYFLZZpmhTs-lvnNhGI-12" value="Yes" style="edgeStyle=orthogonalEdgeStyle;rounded=0;orthogonalLoop=1;jettySize=auto;html=1;exitX=1;exitY=0.5;exitDx=0;exitDy=0;entryX=0;entryY=0.5;entryDx=0;entryDy=0;" edge="1" parent="vi78r01F3k-2fIKYilnz-6" source="xYYFLZZpmhTs-lvnNhGI-8" target="vi78r01F3k-2fIKYilnz-30">
          <mxGeometry relative="1" as="geometry" />
        </mxCell>
        <mxCell id="xYYFLZZpmhTs-lvnNhGI-27" style="edgeStyle=orthogonalEdgeStyle;rounded=0;orthogonalLoop=1;jettySize=auto;html=1;exitX=0.75;exitY=1;exitDx=0;exitDy=0;entryX=0.5;entryY=0.5;entryDx=0;entryDy=-15;entryPerimeter=0;" edge="1" parent="vi78r01F3k-2fIKYilnz-6" source="vi78r01F3k-2fIKYilnz-38" target="xYYFLZZpmhTs-lvnNhGI-26">
          <mxGeometry relative="1" as="geometry">
            <Array as="points">
              <mxPoint x="85" y="680" />
              <mxPoint x="180" y="680" />
            </Array>
          </mxGeometry>
        </mxCell>
        <mxCell id="xYYFLZZpmhTs-lvnNhGI-31" style="edgeStyle=orthogonalEdgeStyle;rounded=0;orthogonalLoop=1;jettySize=auto;html=1;exitX=0;exitY=0.5;exitDx=0;exitDy=0;entryX=1;entryY=0.5;entryDx=0;entryDy=0;" edge="1" parent="vi78r01F3k-2fIKYilnz-6" source="xYYFLZZpmhTs-lvnNhGI-29" target="vi78r01F3k-2fIKYilnz-13">
          <mxGeometry relative="1" as="geometry" />
        </mxCell>
      </root>
    </mxGraphModel>
  </diagram>
  <diagram id="ZwSVhoRYo3ictDDtUe_3" name="Page-2">
    <mxGraphModel dx="2340" dy="1415" grid="1" gridSize="10" guides="1" tooltips="1" connect="1" arrows="1" fold="1" page="1" pageScale="1" pageWidth="1169" pageHeight="827" math="0" shadow="0">
      <root>
        <mxCell id="0" />
        <mxCell id="1" parent="0" />
        <mxCell id="aD5LHHOAW4cervlaWUyM-2" style="edgeStyle=orthogonalEdgeStyle;rounded=0;orthogonalLoop=1;jettySize=auto;html=1;exitX=0.5;exitY=0.5;exitDx=0;exitDy=15;exitPerimeter=0;entryX=0.5;entryY=0;entryDx=0;entryDy=0;" edge="1" parent="1" source="cutmOOdtV3wX0GPIrYy5-34" target="aD5LHHOAW4cervlaWUyM-1">
          <mxGeometry relative="1" as="geometry" />
        </mxCell>
        <mxCell id="cutmOOdtV3wX0GPIrYy5-34" value="START" style="html=1;dashed=0;whiteSpace=wrap;shape=mxgraph.dfd.start" vertex="1" parent="1">
          <mxGeometry x="482" y="60" width="80" height="30" as="geometry" />
        </mxCell>
        <mxCell id="aD5LHHOAW4cervlaWUyM-4" style="edgeStyle=orthogonalEdgeStyle;rounded=0;orthogonalLoop=1;jettySize=auto;html=1;exitX=0.5;exitY=1;exitDx=0;exitDy=0;entryX=0.5;entryY=0;entryDx=0;entryDy=0;" edge="1" parent="1" source="aD5LHHOAW4cervlaWUyM-1" target="aD5LHHOAW4cervlaWUyM-3">
          <mxGeometry relative="1" as="geometry" />
        </mxCell>
        <mxCell id="aD5LHHOAW4cervlaWUyM-1" value="Pelanggan login" style="rounded=0;whiteSpace=wrap;html=1;" vertex="1" parent="1">
          <mxGeometry x="472" y="120" width="100" height="50" as="geometry" />
        </mxCell>
        <mxCell id="aD5LHHOAW4cervlaWUyM-6" style="edgeStyle=orthogonalEdgeStyle;rounded=0;orthogonalLoop=1;jettySize=auto;html=1;exitX=0.5;exitY=1;exitDx=0;exitDy=0;entryX=0.5;entryY=0;entryDx=0;entryDy=0;" edge="1" parent="1" source="aD5LHHOAW4cervlaWUyM-3" target="aD5LHHOAW4cervlaWUyM-5">
          <mxGeometry relative="1" as="geometry" />
        </mxCell>
        <mxCell id="aD5LHHOAW4cervlaWUyM-3" value="Memilih makanan dan minuman berdasar kategori" style="rounded=0;whiteSpace=wrap;html=1;" vertex="1" parent="1">
          <mxGeometry x="472" y="200" width="100" height="50" as="geometry" />
        </mxCell>
        <mxCell id="aD5LHHOAW4cervlaWUyM-9" style="edgeStyle=orthogonalEdgeStyle;rounded=0;orthogonalLoop=1;jettySize=auto;html=1;exitX=0.5;exitY=1;exitDx=0;exitDy=0;entryX=0.5;entryY=0;entryDx=0;entryDy=0;" edge="1" parent="1" source="aD5LHHOAW4cervlaWUyM-5" target="aD5LHHOAW4cervlaWUyM-8">
          <mxGeometry relative="1" as="geometry" />
        </mxCell>
        <mxCell id="aD5LHHOAW4cervlaWUyM-5" value="Checkout dan masukkan alamat" style="rounded=0;whiteSpace=wrap;html=1;" vertex="1" parent="1">
          <mxGeometry x="472" y="280" width="100" height="50" as="geometry" />
        </mxCell>
        <mxCell id="aD5LHHOAW4cervlaWUyM-14" value="Yes" style="edgeStyle=orthogonalEdgeStyle;rounded=0;orthogonalLoop=1;jettySize=auto;html=1;exitX=0.5;exitY=1;exitDx=0;exitDy=0;entryX=0.5;entryY=0;entryDx=0;entryDy=0;" edge="1" parent="1" source="aD5LHHOAW4cervlaWUyM-8" target="aD5LHHOAW4cervlaWUyM-11">
          <mxGeometry relative="1" as="geometry" />
        </mxCell>
        <mxCell id="aD5LHHOAW4cervlaWUyM-17" value="No" style="edgeStyle=orthogonalEdgeStyle;rounded=0;orthogonalLoop=1;jettySize=auto;html=1;exitX=1;exitY=0.5;exitDx=0;exitDy=0;entryX=1;entryY=0.5;entryDx=0;entryDy=0;" edge="1" parent="1" source="aD5LHHOAW4cervlaWUyM-8" target="aD5LHHOAW4cervlaWUyM-3">
          <mxGeometry relative="1" as="geometry">
            <Array as="points">
              <mxPoint x="597" y="404" />
              <mxPoint x="597" y="225" />
            </Array>
          </mxGeometry>
        </mxCell>
        <mxCell id="aD5LHHOAW4cervlaWUyM-8" value="&lt;span style=&quot;background-color: transparent; color: light-dark(rgb(0, 0, 0), rgb(255, 255, 255));&quot;&gt;&lt;font style=&quot;font-size: 10px;&quot;&gt;Menu tersedia ?&lt;/font&gt;&lt;/span&gt;" style="rhombus;whiteSpace=wrap;html=1;" vertex="1" parent="1">
          <mxGeometry x="482" y="363.5" width="80" height="80" as="geometry" />
        </mxCell>
        <mxCell id="aD5LHHOAW4cervlaWUyM-15" style="edgeStyle=orthogonalEdgeStyle;rounded=0;orthogonalLoop=1;jettySize=auto;html=1;exitX=0.5;exitY=1;exitDx=0;exitDy=0;entryX=0.5;entryY=0;entryDx=0;entryDy=0;" edge="1" parent="1" source="aD5LHHOAW4cervlaWUyM-11" target="aD5LHHOAW4cervlaWUyM-12">
          <mxGeometry relative="1" as="geometry" />
        </mxCell>
        <mxCell id="aD5LHHOAW4cervlaWUyM-11" value="Pilih metode pembayaran" style="rounded=0;whiteSpace=wrap;html=1;" vertex="1" parent="1">
          <mxGeometry x="472" y="480" width="100" height="50" as="geometry" />
        </mxCell>
        <mxCell id="aD5LHHOAW4cervlaWUyM-16" value="Yes" style="edgeStyle=orthogonalEdgeStyle;rounded=0;orthogonalLoop=1;jettySize=auto;html=1;exitX=0.5;exitY=1;exitDx=0;exitDy=0;entryX=0.5;entryY=0;entryDx=0;entryDy=0;" edge="1" parent="1" source="aD5LHHOAW4cervlaWUyM-12" target="aD5LHHOAW4cervlaWUyM-13">
          <mxGeometry relative="1" as="geometry" />
        </mxCell>
        <mxCell id="j0VpZdtHcJF_13L6UuvB-1" value="No" style="edgeStyle=orthogonalEdgeStyle;rounded=0;orthogonalLoop=1;jettySize=auto;html=1;exitX=1;exitY=0.5;exitDx=0;exitDy=0;entryX=0;entryY=0.5;entryDx=0;entryDy=0;" edge="1" parent="1" source="aD5LHHOAW4cervlaWUyM-12" target="aD5LHHOAW4cervlaWUyM-20">
          <mxGeometry relative="1" as="geometry" />
        </mxCell>
        <mxCell id="aD5LHHOAW4cervlaWUyM-12" value="&lt;span style=&quot;background-color: transparent; color: light-dark(rgb(0, 0, 0), rgb(255, 255, 255));&quot;&gt;&lt;font style=&quot;font-size: 10px;&quot;&gt;Transfer ?&lt;/font&gt;&lt;/span&gt;" style="rhombus;whiteSpace=wrap;html=1;" vertex="1" parent="1">
          <mxGeometry x="482" y="560" width="80" height="80" as="geometry" />
        </mxCell>
        <mxCell id="aD5LHHOAW4cervlaWUyM-18" value="No" style="edgeStyle=orthogonalEdgeStyle;rounded=0;orthogonalLoop=1;jettySize=auto;html=1;exitX=0;exitY=0.5;exitDx=0;exitDy=0;entryX=0;entryY=0.5;entryDx=0;entryDy=0;" edge="1" parent="1" source="aD5LHHOAW4cervlaWUyM-13" target="aD5LHHOAW4cervlaWUyM-11">
          <mxGeometry relative="1" as="geometry" />
        </mxCell>
        <mxCell id="IdIB9FO-cTLabffJ8Gwb-1" value="Yes" style="edgeStyle=orthogonalEdgeStyle;rounded=0;orthogonalLoop=1;jettySize=auto;html=1;exitX=0.5;exitY=1;exitDx=0;exitDy=0;entryX=0.5;entryY=0;entryDx=0;entryDy=0;" edge="1" parent="1" source="aD5LHHOAW4cervlaWUyM-13" target="aD5LHHOAW4cervlaWUyM-19">
          <mxGeometry relative="1" as="geometry" />
        </mxCell>
        <mxCell id="aD5LHHOAW4cervlaWUyM-13" value="&lt;span style=&quot;background-color: transparent; color: light-dark(rgb(0, 0, 0), rgb(255, 255, 255));&quot;&gt;&lt;font style=&quot;font-size: 10px;&quot;&gt;Pembayaran berhasil ?&lt;/font&gt;&lt;/span&gt;" style="rhombus;whiteSpace=wrap;html=1;" vertex="1" parent="1">
          <mxGeometry x="482" y="670" width="80" height="80" as="geometry" />
        </mxCell>
        <mxCell id="SVyLdSo_N4QiJj-n_2lF-1" style="edgeStyle=orthogonalEdgeStyle;rounded=0;orthogonalLoop=1;jettySize=auto;html=1;exitX=0.5;exitY=1;exitDx=0;exitDy=0;entryX=0.5;entryY=0;entryDx=0;entryDy=0;" edge="1" parent="1" source="aD5LHHOAW4cervlaWUyM-19" target="kI8bC1MCI7xuos5S8Alt-1">
          <mxGeometry relative="1" as="geometry" />
        </mxCell>
        <mxCell id="aD5LHHOAW4cervlaWUyM-19" value="Membuat pesanan&amp;nbsp;" style="rounded=0;whiteSpace=wrap;html=1;" vertex="1" parent="1">
          <mxGeometry x="472" y="777" width="100" height="50" as="geometry" />
        </mxCell>
        <mxCell id="j0VpZdtHcJF_13L6UuvB-2" style="edgeStyle=orthogonalEdgeStyle;rounded=0;orthogonalLoop=1;jettySize=auto;html=1;exitX=0.5;exitY=1;exitDx=0;exitDy=0;entryX=1;entryY=0.5;entryDx=0;entryDy=0;" edge="1" parent="1" source="aD5LHHOAW4cervlaWUyM-20" target="aD5LHHOAW4cervlaWUyM-19">
          <mxGeometry relative="1" as="geometry" />
        </mxCell>
        <mxCell id="aD5LHHOAW4cervlaWUyM-20" value="Siapkan uang tunai" style="rounded=0;whiteSpace=wrap;html=1;" vertex="1" parent="1">
          <mxGeometry x="617" y="575" width="100" height="50" as="geometry" />
        </mxCell>
        <mxCell id="g8wcApNXM79rv0v7Kkiy-1" style="edgeStyle=orthogonalEdgeStyle;rounded=0;orthogonalLoop=1;jettySize=auto;html=1;exitX=0.5;exitY=1;exitDx=0;exitDy=0;entryX=0.5;entryY=0;entryDx=0;entryDy=0;" edge="1" parent="1" source="kI8bC1MCI7xuos5S8Alt-1" target="tMEodXi0QG1VV0Wedei6-1">
          <mxGeometry relative="1" as="geometry" />
        </mxCell>
        <mxCell id="kI8bC1MCI7xuos5S8Alt-1" value="Proses pesanan&lt;div&gt;(diproses/dikirim)&lt;/div&gt;" style="rounded=0;whiteSpace=wrap;html=1;" vertex="1" parent="1">
          <mxGeometry x="472" y="860" width="100" height="50" as="geometry" />
        </mxCell>
        <mxCell id="tMEodXi0QG1VV0Wedei6-1" value="Pesanan diterima dan bayar (jika tunai)" style="rounded=0;whiteSpace=wrap;html=1;" vertex="1" parent="1">
          <mxGeometry x="472" y="940" width="100" height="50" as="geometry" />
        </mxCell>
        <mxCell id="g8wcApNXM79rv0v7Kkiy-2" value="END" style="html=1;dashed=0;whiteSpace=wrap;shape=mxgraph.dfd.start" vertex="1" parent="1">
          <mxGeometry x="482" y="1020" width="80" height="30" as="geometry" />
        </mxCell>
        <mxCell id="g8wcApNXM79rv0v7Kkiy-3" style="edgeStyle=orthogonalEdgeStyle;rounded=0;orthogonalLoop=1;jettySize=auto;html=1;exitX=0.5;exitY=1;exitDx=0;exitDy=0;entryX=0.5;entryY=0.5;entryDx=0;entryDy=-15;entryPerimeter=0;" edge="1" parent="1" source="tMEodXi0QG1VV0Wedei6-1" target="g8wcApNXM79rv0v7Kkiy-2">
          <mxGeometry relative="1" as="geometry" />
        </mxCell>
      </root>
    </mxGraphModel>
  </diagram>
</mxfile>
